<mxfile host="Electron" modified="2024-02-24T08:58:58.022Z" agent="Mozilla/5.0 (Macintosh; Intel Mac OS X 10_15_7) AppleWebKit/537.36 (KHTML, like Gecko) draw.io/23.1.5 Chrome/120.0.6099.109 Electron/28.1.0 Safari/537.36" etag="sMLLGF7bbuYDC7lEnStL" version="23.1.5" type="device">
  <diagram name="페이지-1" id="7QS0gKy2nTAweHZyGPu1">
    <mxGraphModel dx="1114" dy="894" grid="1" gridSize="10" guides="1" tooltips="1" connect="1" arrows="1" fold="1" page="1" pageScale="1" pageWidth="827" pageHeight="1169" math="0" shadow="0">
      <root>
        <mxCell id="0" />
        <mxCell id="1" parent="0" />
        <mxCell id="kVG4e2n8JphV_UD5iK-G-6" style="edgeStyle=orthogonalEdgeStyle;rounded=0;orthogonalLoop=1;jettySize=auto;html=1;entryX=0;entryY=0.5;entryDx=0;entryDy=0;endArrow=block;endFill=1;" edge="1" parent="1" source="kVG4e2n8JphV_UD5iK-G-2" target="kVG4e2n8JphV_UD5iK-G-4">
          <mxGeometry relative="1" as="geometry" />
        </mxCell>
        <mxCell id="kVG4e2n8JphV_UD5iK-G-2" value="UsernamePassword&lt;br&gt;AuthenticationProvider" style="rounded=0;whiteSpace=wrap;html=1;" vertex="1" parent="1">
          <mxGeometry x="80" y="120" width="180" height="50" as="geometry" />
        </mxCell>
        <mxCell id="kVG4e2n8JphV_UD5iK-G-7" style="edgeStyle=orthogonalEdgeStyle;rounded=0;orthogonalLoop=1;jettySize=auto;html=1;entryX=0;entryY=0.5;entryDx=0;entryDy=0;endArrow=block;endFill=1;" edge="1" parent="1" source="kVG4e2n8JphV_UD5iK-G-3" target="kVG4e2n8JphV_UD5iK-G-4">
          <mxGeometry relative="1" as="geometry" />
        </mxCell>
        <mxCell id="kVG4e2n8JphV_UD5iK-G-3" value="OtpAuthenticationProvider" style="rounded=0;whiteSpace=wrap;html=1;" vertex="1" parent="1">
          <mxGeometry x="80" y="200" width="180" height="50" as="geometry" />
        </mxCell>
        <mxCell id="kVG4e2n8JphV_UD5iK-G-8" style="edgeStyle=orthogonalEdgeStyle;rounded=0;orthogonalLoop=1;jettySize=auto;html=1;" edge="1" parent="1" source="kVG4e2n8JphV_UD5iK-G-4" target="kVG4e2n8JphV_UD5iK-G-5">
          <mxGeometry relative="1" as="geometry" />
        </mxCell>
        <mxCell id="kVG4e2n8JphV_UD5iK-G-9" value="REST API 호출" style="edgeLabel;html=1;align=center;verticalAlign=middle;resizable=0;points=[];" vertex="1" connectable="0" parent="kVG4e2n8JphV_UD5iK-G-8">
          <mxGeometry x="-0.5818" y="1" relative="1" as="geometry">
            <mxPoint x="25" y="-1" as="offset" />
          </mxGeometry>
        </mxCell>
        <mxCell id="kVG4e2n8JphV_UD5iK-G-4" value="AuthenticationServerProxy" style="rounded=0;whiteSpace=wrap;html=1;fillColor=#f8cecc;strokeColor=#b85450;" vertex="1" parent="1">
          <mxGeometry x="320" y="160" width="180" height="50" as="geometry" />
        </mxCell>
        <mxCell id="kVG4e2n8JphV_UD5iK-G-5" value="인증 서버" style="sketch=0;outlineConnect=0;fontColor=#232F3E;gradientColor=none;fillColor=#232F3D;strokeColor=none;dashed=0;verticalLabelPosition=bottom;verticalAlign=top;align=center;html=1;fontSize=12;fontStyle=0;aspect=fixed;pointerEvents=1;shape=mxgraph.aws4.traditional_server;" vertex="1" parent="1">
          <mxGeometry x="610" y="165" width="23.08" height="40" as="geometry" />
        </mxCell>
        <mxCell id="kVG4e2n8JphV_UD5iK-G-10" value="AuthenticationProvider 가 구현하는 인증 논리는 AuthenticationServerProxy 를 이용하여 인증 서버를 호출함" style="text;html=1;align=center;verticalAlign=middle;whiteSpace=wrap;rounded=0;fillColor=#d5e8d4;strokeColor=#82b366;sketch=1;curveFitting=1;jiggle=2;" vertex="1" parent="1">
          <mxGeometry x="140" y="300" width="300" height="50" as="geometry" />
        </mxCell>
      </root>
    </mxGraphModel>
  </diagram>
</mxfile>
